<svg xmlns="http://www.w3.org/2000/svg" viewBox="0 0 317.03 137.29"><defs><style>.cls-1{fill:#279880;}</style></defs><title>Logo Sheap</title><g id="OBJECTS"><path class="cls-1" d="M182.38,65.47,171.19,76.91a5.8,5.8,0,0,1-4.11,1.92,5.59,5.59,0,0,1-4.24-1.92,6.36,6.36,0,0,1-1.8-4.48,6.12,6.12,0,0,1,1.93-4.3l6.29-6.5a14.47,14.47,0,0,0-2.27-.18,9.86,9.86,0,0,0-7.43,3.2,10.84,10.84,0,0,0-3.06,7.78,11,11,0,0,0,3.06,7.82A9.84,9.84,0,0,0,167,83.5h7.78A5.59,5.59,0,0,1,179,85.19a6.15,6.15,0,0,1,1.62,4.43A6.33,6.33,0,0,1,179,94.11a5.52,5.52,0,0,1-4.24,1.74H167a21,21,0,0,1-15.87-6.77,23.31,23.31,0,0,1-6.43-16.65,23.13,23.13,0,0,1,6.43-16.61,22,22,0,0,1,32,.41,6.12,6.12,0,0,1-.78,9.24Z"/><path class="cls-1" d="M211.93,95.85a21,21,0,0,1-15.87-6.77,23.31,23.31,0,0,1-6.43-16.65,23.13,23.13,0,0,1,6.43-16.61,22.15,22.15,0,0,1,31.78,0,23,23,0,0,1,6.47,16.61v17.1A6.06,6.06,0,0,1,232.65,94a5.74,5.74,0,0,1-4.28,1.69A5.61,5.61,0,0,1,224.12,94a6.2,6.2,0,0,1-1.61-4.44V72.43a10.76,10.76,0,0,0-3.11-7.78,10,10,0,0,0-7.47-3.2,9.86,9.86,0,0,0-7.43,3.2,10.84,10.84,0,0,0-3.06,7.78,11,11,0,0,0,3.06,7.82,9.84,9.84,0,0,0,7.43,3.25,5.72,5.72,0,0,1,4.28,1.69,6.05,6.05,0,0,1,1.66,4.43,6.23,6.23,0,0,1-1.66,4.49A5.65,5.65,0,0,1,211.93,95.85Z"/><path class="cls-1" d="M261.33,83.5a10,10,0,0,0,7.47-3.25,10.92,10.92,0,0,0,3.11-7.82,10.76,10.76,0,0,0-3.11-7.78,10,10,0,0,0-7.47-3.2,9.88,9.88,0,0,0-7.44,3.2,10.84,10.84,0,0,0-3.06,7.78V108.2a6.2,6.2,0,0,1-1.66,4.48,5.65,5.65,0,0,1-4.28,1.74,5.52,5.52,0,0,1-4.24-1.74A6.31,6.31,0,0,1,239,108.2V72.43a23.09,23.09,0,0,1,6.43-16.61,22.15,22.15,0,0,1,31.78,0,23,23,0,0,1,6.47,16.61,23.22,23.22,0,0,1-6.47,16.65,21.17,21.17,0,0,1-15.91,6.77,5.5,5.5,0,0,1-4.24-1.74,6.33,6.33,0,0,1-1.62-4.49,6.15,6.15,0,0,1,1.62-4.43A5.57,5.57,0,0,1,261.33,83.5Z"/><path class="cls-1" d="M234.22,102.8v.27q-.16,6.33-6,10.44a22.83,22.83,0,0,1-14.15,3.92l-27.26-.62c-1.81,0-33.31,0-40.64-.51h0c-5.36,0-9-.85-12.59-4.66a19.6,19.6,0,0,1-5.42-14l-.09-27.26A7.19,7.19,0,0,0,126,65.17,6.58,6.58,0,0,0,121.09,63a6.78,6.78,0,0,0-5,2.11A7.17,7.17,0,0,0,114,70.34V91.1a6.09,6.09,0,0,1-1.65,4.44,5.75,5.75,0,0,1-4.29,1.69,5.59,5.59,0,0,1-4.24-1.69,6.16,6.16,0,0,1-1.62-4.44V38a6.16,6.16,0,0,1,1.62-4.44,5.63,5.63,0,0,1,4.24-1.69,5.79,5.79,0,0,1,4.29,1.69A6.09,6.09,0,0,1,114,38V52a18.32,18.32,0,0,1,7.09-1.37,17.93,17.93,0,0,1,13.42,5.67,19.41,19.41,0,0,1,5.46,14V97.6c0,2.07-.23,4.41,1.14,5.85l0,0a9.89,9.89,0,0,0,6.37,3.12l2.36.19c8.49-.18,32.27.55,37.2.68l24.92.25c2.07,0,6.17,0,7.63-1.06a4.81,4.81,0,0,0,2.25-3.9v-.27a3.93,3.93,0,0,1,1.82-3.29A7.35,7.35,0,0,1,228.21,98a7.17,7.17,0,0,1,4.4,1.38A4,4,0,0,1,234.22,102.8Z"/><path class="cls-1" d="M66.23,105.14c-9.22,0-16.68-2.19-22.18-6.53-6.25-4.77-9.86-12-10.69-21.35a5.9,5.9,0,0,1,5.93-6.73,6.33,6.33,0,0,1,6.41,5.33l0,.19c.51,5.92,2.45,10.09,5.94,12.76,3.32,2.61,8.2,3.92,14.57,3.92,5.59,0,10.25-1.34,13.84-4a12.45,12.45,0,0,0,5.62-10.7A17,17,0,0,0,81.94,67.8c-1.63-1.71-4.36-4.57-15-4.57-1.31,0-2.72.05-4.18.14-1.17.07-2.32.11-3.42.11-8.33,0-14.77-2.12-19.17-6.29A17.06,17.06,0,0,1,34.77,45.3a23.28,23.28,0,0,1,9.58-19.42l.06-.05c5.53-4,12.76-6,21.47-6,9.2,0,16.59,2.64,22,7.86a26.36,26.36,0,0,1,6.54,10.52,6.21,6.21,0,0,1-3.9,7.87,6.36,6.36,0,0,1-2,.32,6.2,6.2,0,0,1-5.88-4.23,13.92,13.92,0,0,0-3.44-5.58c-3-2.88-7.47-4.35-13.33-4.35-6,0-10.82,1.21-14.18,3.61a11,11,0,0,0-4.51,9.36,4.92,4.92,0,0,0,1.6,3c2,1.86,5.66,2.85,10.59,2.85.84,0,1.74,0,2.66-.09,1.77-.11,3.47-.16,5.07-.16,13.9,0,19.83,4.25,23.8,8.4A29.36,29.36,0,0,1,98.1,78.05,24.66,24.66,0,0,1,87.37,98.79C81.66,103,74.53,105.14,66.23,105.14Z"/></g></svg>