<svg xmlns="http://www.w3.org/2000/svg" viewBox="0 0 760.1 455.69"><defs><style>.cls-1{fill:#279880;}</style></defs><title>Logo Sheap colorida</title><g id="OBJECTS"><path class="cls-1" d="M454.1,208.87,420.31,243.4q-5.82,5.81-12.41,5.8a17,17,0,0,1-12.81-5.8,19.22,19.22,0,0,1-5.41-13.54q0-6.9,5.81-13l19-19.62a44.19,44.19,0,0,0-6.87-.55,29.9,29.9,0,0,0-22.44,9.67A32.75,32.75,0,0,0,376,229.86a33.18,33.18,0,0,0,9.24,23.62,29.68,29.68,0,0,0,22.44,9.81h23.5q7.92,0,12.81,5.11t4.88,13.4q0,8.29-4.88,13.54a16.69,16.69,0,0,1-12.81,5.25h-23.5q-28.51,0-47.92-20.45t-19.4-50.28q0-29.84,19.4-50.14t47.92-20.31q28.78,0,48.85,21.55a18.52,18.52,0,0,1,5.28,12.71Q461.76,202.79,454.1,208.87Z"/><path class="cls-1" d="M543.34,300.59q-28.51,0-47.92-20.45T476,229.86q0-29.84,19.41-50.14t47.92-20.31q28.51,0,48,20.31t19.54,50.14v51.67q0,8.28-5,13.4A17.34,17.34,0,0,1,593,300q-7.92,0-12.81-5.11t-4.88-13.4V229.86a32.5,32.5,0,0,0-9.38-23.48,30.32,30.32,0,0,0-22.57-9.67,29.9,29.9,0,0,0-22.44,9.67,32.71,32.71,0,0,0-9.24,23.48,33.14,33.14,0,0,0,9.24,23.62,29.68,29.68,0,0,0,22.44,9.81,17.38,17.38,0,0,1,12.94,5.11q5,5.12,5,13.4t-5,13.54A17.11,17.11,0,0,1,543.34,300.59Z"/><path class="cls-1" d="M692.51,263.29a30.09,30.09,0,0,0,22.57-9.81,32.93,32.93,0,0,0,9.38-23.62,32.5,32.5,0,0,0-9.38-23.48,30.32,30.32,0,0,0-22.57-9.67,29.9,29.9,0,0,0-22.44,9.67,32.75,32.75,0,0,0-9.24,23.48v108q0,8.28-5,13.53a17.1,17.1,0,0,1-12.94,5.25,16.65,16.65,0,0,1-12.8-5.25q-4.89-5.25-4.89-13.53v-108q0-29.84,19.41-50.14t47.92-20.31q28.51,0,48,20.31t19.54,50.14q0,29.85-19.54,50.28t-48,20.45a16.65,16.65,0,0,1-12.8-5.25q-4.89-5.25-4.89-13.54t4.89-13.4Q684.59,263.3,692.51,263.29Z"/><path class="cls-1" d="M610.66,321.58v.83q-.49,19.11-18.06,31.53t-42.72,11.81l-82.31-1.84c-5.48-.14-100.58.12-122.74-1.56h0c-16.2,0-27.12-2.56-38-14.06s-16.37-25.65-16.37-42.41l-.27-82.33a21.81,21.81,0,0,0-6.2-15.61A19.94,19.94,0,0,0,269,201.45a20.42,20.42,0,0,0-15.18,6.35,21.66,21.66,0,0,0-6.21,15.75v62.72q0,8.28-5,13.39a17.33,17.33,0,0,1-12.94,5.11q-7.92,0-12.8-5.11T212,286.27V126q0-8.3,4.89-13.4t12.8-5.11a17.33,17.33,0,0,1,12.94,5.11q5,5.12,5,13.4v42.26A55.57,55.57,0,0,1,269,164.15q24,0,40.53,17.13t16.5,42.27v82.33c0,6.25-.7,13.34,3.44,17.67l.08.09a30,30,0,0,0,19.24,9.41l7.12.58c25.64-.54,97.46,1.67,112.34,2.05l75.25.78c6.25.15,18.65-.07,23.06-3.21s6.67-7.07,6.78-11.77l0-.83a11.92,11.92,0,0,1,5.49-9.94q5.34-3.7,13.63-3.5c5.53.14,10,1.53,13.3,4.18A12,12,0,0,1,610.66,321.58Z"/><path class="cls-1" d="M103.35,328.66c-27.81,0-50.35-6.63-67-19.72C17.51,294.54,6.61,272.8,4.12,244.45a18.22,18.22,0,0,1,4.27-14.31,18.07,18.07,0,0,1,13.62-6c9.85,0,18.17,6.91,19.35,16.08l.06.59c1.55,17.87,7.41,30.47,17.93,38.51,10,7.9,24.79,11.85,44,11.85,16.91,0,31-4.05,41.8-12,11.47-8.22,17-18.75,17-32.29,0-14.31-7.78-27.27-11.32-31-4.92-5.15-13.15-13.78-45.13-13.78-4,0-8.21.14-12.63.42-3.52.22-7,.34-10.34.34-25.13,0-44.61-6.4-57.89-19A51.43,51.43,0,0,1,8.38,148c0-24.31,10-44.59,28.9-58.65l.2-.15c16.7-12,38.51-18,64.83-18,27.77,0,50.11,8,66.39,23.76a79.37,79.37,0,0,1,19.76,31.76,18.72,18.72,0,0,1-11.77,23.75A18.73,18.73,0,0,1,153,138.6a42.32,42.32,0,0,0-10.39-16.86c-9-8.71-22.55-13.15-40.25-13.15-18.26,0-32.67,3.68-42.83,10.92-9.11,6.81-13.56,16-13.62,28.26a14.83,14.83,0,0,0,4.85,9c6,5.64,17.07,8.62,32,8.62,2.55,0,5.26-.09,8-.26,5.33-.34,10.49-.51,15.31-.51,42,0,59.9,12.83,71.88,25.39,10.45,10.93,21.7,33.39,21.7,56.86,0,25.75-11.21,47.4-32.41,62.61C150,322.17,128.43,328.66,103.35,328.66Z"/></g></svg>