<svg xmlns="http://www.w3.org/2000/svg" xmlns:xlink="http://www.w3.org/1999/xlink" viewBox="0 0 48 48"><defs><style>.cls-1{fill:#279880;}.cls-2{clip-path:url(#clip-path);}.cls-3{fill:#fff;}</style><clipPath id="clip-path"><circle class="cls-1" cx="24" cy="24" r="24"/></clipPath></defs><title>Logo Sheap icone</title><g id="OBJECTS"><circle class="cls-1" cx="24" cy="24" r="24"/><g class="cls-2"><circle class="cls-1" cx="24" cy="23.96" r="24"/><path class="cls-3" d="M68.38,35.29v.08a3.94,3.94,0,0,1-1.85,3.23,7.05,7.05,0,0,1-4.37,1.21l-8.42-.19c-.56,0-10.29,0-12.56-.16h0A4.68,4.68,0,0,1,37.29,38a6,6,0,0,1-1.67-4.34l0-8.42a2.23,2.23,0,0,0-.64-1.6A2,2,0,0,0,33.43,23a2.09,2.09,0,0,0-1.55.65,2.19,2.19,0,0,0-.64,1.61v6.42a1.89,1.89,0,0,1-.51,1.37,1.78,1.78,0,0,1-1.33.52,1.73,1.73,0,0,1-1.31-.52,1.92,1.92,0,0,1-.5-1.37V15.28a1.92,1.92,0,0,1,.5-1.37,1.73,1.73,0,0,1,1.31-.52,1.78,1.78,0,0,1,1.33.52,1.89,1.89,0,0,1,.51,1.37v4.33a5.78,5.78,0,0,1,6.33,1.32,6,6,0,0,1,1.69,4.33v8.42c0,.64-.07,1.37.35,1.81h0a3.06,3.06,0,0,0,2,1l.73.06c2.62-.05,10,.17,11.49.21l7.7.08a5.27,5.27,0,0,0,2.36-.33,1.47,1.47,0,0,0,.69-1.2v-.09a1.19,1.19,0,0,1,.56-1,2.59,2.59,0,0,1,2.75.07A1.2,1.2,0,0,1,68.38,35.29Z"/><path class="cls-3" d="M16.48,36a10.86,10.86,0,0,1-6.85-2,8.87,8.87,0,0,1-3.3-6.6,1.8,1.8,0,0,1,1.83-2.08,2,2,0,0,1,2,1.65V27A5.23,5.23,0,0,0,12,31a7.2,7.2,0,0,0,4.5,1.21A7.11,7.11,0,0,0,20.76,31a3.84,3.84,0,0,0,1.73-3.31,5.23,5.23,0,0,0-1.16-3.17c-.5-.52-1.34-1.4-4.61-1.4-.41,0-.84,0-1.3,0l-1.05,0A8.32,8.32,0,0,1,8.44,21.2a5.27,5.27,0,0,1-1.68-3.67,7.17,7.17,0,0,1,3-6l0,0a11.2,11.2,0,0,1,6.63-1.85,9.35,9.35,0,0,1,6.79,2.44,8.08,8.08,0,0,1,2,3.24,1.92,1.92,0,0,1-.1,1.47,1.88,1.88,0,0,1-1.11,1,1.81,1.81,0,0,1-.61.1,1.93,1.93,0,0,1-1.82-1.3,4.31,4.31,0,0,0-1.06-1.73,5.74,5.74,0,0,0-4.12-1.34A7.41,7.41,0,0,0,12,14.62a3.37,3.37,0,0,0-1.39,2.89,1.49,1.49,0,0,0,.49.92,4.9,4.9,0,0,0,3.27.88l.83,0c.54,0,1.07-.05,1.56-.05,4.3,0,6.13,1.31,7.36,2.6a9,9,0,0,1,2.22,5.81A7.62,7.62,0,0,1,23,34.05,10.76,10.76,0,0,1,16.48,36Z"/></g></g></svg>