<?xml version="1.0" encoding="utf-8"?>
<!-- Generator: Adobe Illustrator 23.0.0, SVG Export Plug-In . SVG Version: 6.00 Build 0)  -->
<svg version="1.1" id="Camada_1" xmlns="http://www.w3.org/2000/svg" xmlns:xlink="http://www.w3.org/1999/xlink" x="0px" y="0px"
	 viewBox="0 0 300 150" style="enable-background:new 0 0 300 150;" xml:space="preserve">
<style type="text/css">
	.st0{fill:#009B89;}
	.st1{fill:#00695C;}
</style>
<g>
	<path class="st0" d="M178.59,71.2l-13.41,13.7c-1.54,1.53-3.18,2.3-4.92,2.3c-1.96,0-3.65-0.77-5.08-2.3
		c-1.43-1.53-2.15-3.32-2.15-5.37c0-1.83,0.77-3.54,2.3-5.15l7.54-7.78c-0.91-0.15-1.82-0.22-2.72-0.22c-3.49,0-6.46,1.28-8.9,3.84
		c-2.45,2.56-3.67,5.66-3.67,9.32c0,3.65,1.22,6.78,3.67,9.37c2.44,2.59,5.41,3.89,8.9,3.89h9.32c2.1,0,3.79,0.68,5.08,2.03
		c1.29,1.35,1.94,3.12,1.94,5.32s-0.65,3.98-1.94,5.37c-1.29,1.39-2.99,2.08-5.08,2.08h-9.32c-7.54,0-13.88-2.7-19.01-8.11
		c-5.13-5.41-7.7-12.06-7.7-19.95c0-7.89,2.57-14.52,7.7-19.89s11.47-8.06,19.01-8.06c7.61,0,14.07,2.85,19.38,8.55
		c1.4,1.53,2.1,3.22,2.1,5.04C181.63,67.58,180.61,69.59,178.59,71.2z"/>
	<path class="st0" d="M214,107.59c-7.54,0-13.88-2.7-19.01-8.11c-5.13-5.41-7.7-12.06-7.7-19.95c0-7.89,2.57-14.52,7.7-19.89
		s11.47-8.06,19.01-8.06c7.54,0,13.9,2.69,19.07,8.06c5.17,5.37,7.75,12,7.75,19.89v20.5c0,2.19-0.66,3.96-1.99,5.32
		c-1.33,1.35-3.04,2.03-5.13,2.03c-2.1,0-3.79-0.68-5.08-2.03c-1.29-1.35-1.94-3.12-1.94-5.32v-20.5c0-3.65-1.24-6.76-3.72-9.32
		c-2.48-2.56-5.47-3.84-8.96-3.84c-3.49,0-6.46,1.28-8.9,3.84c-2.45,2.56-3.67,5.66-3.67,9.32c0,3.65,1.22,6.78,3.67,9.37
		c2.44,2.59,5.41,3.89,8.9,3.89c2.1,0,3.81,0.68,5.13,2.03c1.33,1.35,1.99,3.12,1.99,5.32s-0.66,3.98-1.99,5.37
		C217.8,106.89,216.09,107.59,214,107.59z"/>
	<path class="st0" d="M273.18,92.79c3.49,0,6.48-1.3,8.96-3.89c2.48-2.59,3.72-5.72,3.72-9.37c0-3.65-1.24-6.76-3.72-9.32
		c-2.48-2.56-5.47-3.84-8.96-3.84c-3.49,0-6.46,1.28-8.9,3.84c-2.45,2.56-3.67,5.66-3.67,9.32v42.86c0,2.19-0.66,3.98-1.99,5.37
		c-1.33,1.39-3.04,2.08-5.13,2.08c-2.1,0-3.79-0.7-5.08-2.08c-1.29-1.39-1.94-3.18-1.94-5.37V79.53c0-7.89,2.57-14.52,7.7-19.89
		s11.47-8.06,19.01-8.06s13.9,2.69,19.07,8.06c5.17,5.37,7.75,12,7.75,19.89c0,7.89-2.58,14.54-7.75,19.95
		c-5.17,5.41-11.52,8.11-19.07,8.11c-2.1,0-3.79-0.7-5.08-2.08c-1.29-1.39-1.94-3.18-1.94-5.37s0.64-3.96,1.94-5.32
		C269.39,93.47,271.09,92.79,273.18,92.79z"/>
	<path class="st1" d="M240.71,115.92l-0.01,0.33c-0.13,5.05-2.52,9.22-7.16,12.51c-4.65,3.29-10.3,4.85-16.95,4.69l-32.66-0.73
		c-2.17-0.05-39.91,0.05-48.7-0.62h0c-6.43,0-10.76-1.01-15.09-5.58c-4.33-4.57-6.49-10.18-6.49-16.83l-0.11-32.66
		c0-2.41-0.82-4.48-2.46-6.19c-1.64-1.72-3.61-2.58-5.92-2.58c-2.38,0-4.38,0.84-6.02,2.52c-1.64,1.68-2.46,3.76-2.46,6.25v24.88
		c0,2.19-0.66,3.96-1.99,5.31c-1.33,1.35-3.04,2.03-5.13,2.03s-3.79-0.67-5.08-2.03c-1.29-1.35-1.94-3.12-1.94-5.31V38.33
		c0-2.19,0.64-3.96,1.94-5.32c1.29-1.35,2.99-2.03,5.08-2.03s3.81,0.68,5.13,2.03c1.32,1.36,1.99,3.13,1.99,5.32V55.1
		c2.66-1.1,5.48-1.64,8.49-1.64c6.35,0,11.71,2.27,16.08,6.8c4.37,4.53,6.55,10.12,6.55,16.77v32.66c0,2.48-0.28,5.29,1.36,7.01
		c0.01,0.01,0.02,0.02,0.03,0.04c2.02,2.13,4.71,3.49,7.63,3.73l2.83,0.23c10.17-0.21,38.67,0.66,44.57,0.81l29.86,0.31
		c2.48,0.06,7.4-0.02,9.15-1.27c1.75-1.25,2.65-2.81,2.69-4.67l0.01-0.33c0.04-1.65,0.77-2.96,2.18-3.94
		c1.41-0.98,3.22-1.44,5.41-1.39c2.19,0.05,3.95,0.61,5.28,1.66C240.11,112.92,240.75,114.27,240.71,115.92z"/>
	<path class="st0" d="M39.42,118.73c-11.04,0-19.98-2.63-26.57-7.82c-7.48-5.71-11.81-14.34-12.8-25.59
		c-0.24-2.15,0.36-4.16,1.7-5.68c1.33-1.51,3.3-2.38,5.41-2.38c3.91,0,7.21,2.74,7.68,6.38l0.03,0.23
		c0.61,7.09,2.94,12.09,7.11,15.28c3.98,3.14,9.84,4.7,17.46,4.7c6.71,0,12.29-1.61,16.59-4.77c4.55-3.26,6.73-7.44,6.73-12.81
		c0-5.68-3.08-10.82-4.49-12.29c-1.95-2.05-5.22-5.47-17.91-5.47c-1.57,0-3.26,0.06-5.01,0.17c-1.4,0.09-2.78,0.13-4.1,0.13
		c-9.97,0-17.7-2.54-22.97-7.54c-6.21-5.89-6.52-12.9-6.52-14.24c0-9.65,3.97-17.69,11.47-23.27l0.08-0.06
		c6.63-4.75,15.28-7.16,25.72-7.16c11.02,0,19.88,3.17,26.34,9.43c3.56,3.48,6.19,7.72,7.84,12.6c0.64,1.87,0.5,3.89-0.38,5.67
		c-0.88,1.78-2.4,3.11-4.29,3.75c-0.77,0.26-1.57,0.39-2.38,0.39c-3.2,0-6.03-2.04-7.05-5.07c-0.89-2.63-2.28-4.89-4.12-6.69
		c-3.56-3.45-8.94-5.21-15.97-5.21c-7.24,0-12.96,1.46-16.99,4.33c-3.61,2.7-5.38,6.37-5.4,11.21c0.02,0.27,0.24,1.99,1.93,3.57
		c2.39,2.24,6.77,3.42,12.68,3.42c1.01,0,2.09-0.03,3.19-0.1c2.12-0.13,4.16-0.2,6.08-0.2c16.66,0,23.76,5.09,28.52,10.07
		c4.15,4.34,8.61,13.25,8.61,22.56c0,10.22-4.45,18.81-12.86,24.84C57.92,116.15,49.37,118.73,39.42,118.73z"/>
</g>
</svg>
